<?xml version="1.0" encoding="UTF-8"?>
<svg xmlns="http://www.w3.org/2000/svg" id="Logo-FullColour" viewBox="0 0 1007.36 314.55">
  <defs>
    <style>.cls-1{fill:#00b4be;}.cls-2{fill:#0064ff;}.cls-3{fill:#0073ff;}.cls-4{fill:#0078eb;}.cls-5{fill:#008cdc;}.cls-6{fill:#00a0cd;}</style>
  </defs>
  <g id="Wordmark">
    <g id="Computer">
      <g>
        <path d="m356.02,240.05c0-29.66,22.46-49.68,51.26-49.68,23.9,0,36.29,13.1,42.62,25.77l-21.31,10.08c-3.17-7.63-11.37-13.97-21.31-13.97-14.97,0-26.06,12.09-26.06,27.79s11.09,27.79,26.06,27.79c9.94,0,18.14-6.34,21.31-13.97l21.31,10.08c-6.19,12.38-18.72,25.77-42.62,25.77-28.8,0-51.26-20.16-51.26-49.68Z"></path>
        <path d="m454.58,253.15c0-19.58,14.25-36.43,37.87-36.43s38.01,16.85,38.01,36.43-14.11,36.57-38.01,36.57-37.87-16.99-37.87-36.57Zm53.13,0c0-9.22-5.47-16.85-15.26-16.85s-14.98,7.63-14.98,16.85,5.33,16.99,14.98,16.99,15.26-7.63,15.26-16.99Z"></path>
        <path d="m628.25,288v-42.33c0-5.33-2.59-9.36-9.22-9.36-6.05,0-10.37,3.89-12.53,6.77v44.92h-22.17v-42.33c0-5.33-2.45-9.36-9.22-9.36-5.9,0-10.08,3.89-12.38,6.77v44.92h-22.17v-69.55h22.17v8.5c3.02-4.03,11.95-10.22,22.89-10.22,9.94,0,16.85,4.18,19.73,12.38,4.03-6.05,13.1-12.38,24.04-12.38,12.82,0,20.88,6.62,20.88,20.88v50.39h-22.03Z"></path>
        <path d="m686.16,314.55h-22.17v-96.04h22.17v8.06c5.47-6.62,12.67-9.79,20.59-9.79,17.42,0,30.53,12.96,30.53,36.43s-13.1,36.57-30.53,36.57c-7.78,0-14.83-3.02-20.59-9.94v34.7Zm13.25-78.19c-4.75,0-10.51,2.59-13.25,6.34v21.17c2.74,3.6,8.5,6.34,13.25,6.34,8.64,0,15.26-6.48,15.26-16.99s-6.62-16.85-15.26-16.85Z"></path>
        <path d="m794.29,288v-8.35c-4.32,4.9-12.38,10.08-24.05,10.08-15.84,0-22.89-8.93-22.89-21.74v-49.53h22.17v40.46c0,8.35,4.32,11.23,11.52,11.23,6.34,0,10.65-3.46,13.25-6.77v-44.92h22.17v69.55h-22.17Z"></path>
        <path d="m837.07,269.28v-31.53h-11.52v-19.29h11.52v-19.01h22.03v19.01h14.11v19.29h-14.11v25.34c0,4.03,2.3,7.06,6.19,7.06,2.45,0,4.9-.86,5.62-1.73l4.32,16.7c-2.73,2.59-8.21,4.61-16.41,4.61-14.11,0-21.74-7.06-21.74-20.45Z"></path>
        <path d="m916.78,216.78c20.59,0,35.56,15.12,35.56,38.73v4.75h-49.53c1.29,6.48,7.34,12.38,17.71,12.38,6.19,0,13.1-2.45,16.99-5.9l9.36,13.82c-6.91,6.19-18.43,9.22-29.09,9.22-21.45,0-38.01-13.97-38.01-36.57,0-20.16,15.26-36.43,37-36.43Zm-14.25,29.09h28.65c-.58-4.9-4.18-11.95-14.4-11.95-9.65,0-13.39,6.91-14.25,11.95Z"></path>
        <path d="m963.44,288v-69.55h22.17v8.78c4.61-5.62,13.39-10.51,21.74-10.51v21.45c-1.3-.43-3.17-.72-5.47-.72-5.76,0-13.39,2.45-16.27,6.48v44.06h-22.17Z"></path>
      </g>
    </g>
    <g id="Northern">
      <polygon points="425.4 168.04 384.8 110.01 384.8 168.04 360.03 168.04 360.03 72 385.52 72 424.39 127.29 424.39 72 449.3 72 449.3 168.04 425.4 168.04"></polygon>
      <path d="m459.4,133.19c0-19.58,14.25-36.43,37.87-36.43s38.01,16.85,38.01,36.43-14.11,36.57-38.01,36.57-37.87-16.99-37.87-36.57Zm53.13,0c0-9.22-5.47-16.85-15.26-16.85s-14.98,7.63-14.98,16.85,5.33,16.99,14.98,16.99,15.26-7.63,15.26-16.99Z"></path>
      <path d="m545.38,168.04v-69.55h22.17v8.78c4.61-5.62,13.39-10.51,21.74-10.51v21.45c-1.3-.43-3.17-.72-5.47-.72-5.76,0-13.39,2.45-16.27,6.48v44.06h-22.17Z"></path>
      <path d="m608.02,149.32v-31.53h-11.52v-19.29h11.52v-19.01h22.03v19.01h14.11v19.29h-14.11v25.34c0,4.03,2.3,7.06,6.19,7.06,2.45,0,4.9-.86,5.62-1.73l4.32,16.7c-2.73,2.59-8.21,4.61-16.41,4.61-14.11,0-21.74-7.06-21.74-20.45Z"></path>
      <path d="m704.91,168.04v-40.46c0-8.5-4.46-11.23-11.52-11.23-6.48,0-10.8,3.6-13.39,6.77v44.92h-22.17v-96.04h22.17v34.99c4.18-4.9,12.38-10.22,24.05-10.22,15.84,0,23.04,8.93,23.04,21.74v49.53h-22.17Z"></path>
      <path d="m774.18,96.77c20.59,0,35.57,15.12,35.57,38.73v4.75h-49.53c1.29,6.48,7.34,12.38,17.71,12.38,6.19,0,13.1-2.45,16.99-5.9l9.36,13.82c-6.91,6.19-18.43,9.22-29.09,9.22-21.45,0-38.01-13.97-38.01-36.57,0-20.16,15.26-36.43,37-36.43Zm-14.25,29.09h28.65c-.58-4.9-4.18-11.95-14.4-11.95-9.65,0-13.39,6.91-14.25,11.95Z"></path>
      <path d="m819.84,168.04v-69.55h22.17v8.78c4.61-5.62,13.39-10.51,21.74-10.51v21.45c-1.3-.43-3.17-.72-5.47-.72-5.76,0-13.39,2.45-16.27,6.48v44.06h-22.17Z"></path>
      <path d="m919.93,168.04v-40.17c0-8.5-4.46-11.52-11.38-11.52s-10.94,3.6-13.53,6.77v44.92h-22.17v-69.55h22.17v8.5c4.18-4.9,12.38-10.22,24.05-10.22,15.84,0,23.04,9.22,23.04,22.03v49.24h-22.17Z"></path>
    </g>
  </g>
  <g id="Icon">
    <rect class="cls-4" x="72" y="72" width="72" height="72"></rect>
    <rect class="cls-5" x="72" y="144" width="72" height="72"></rect>
    <rect class="cls-6" x="72" y="216" width="72" height="72"></rect>
    <rect class="cls-1" y="216" width="72" height="72"></rect>
    <rect class="cls-3" x="144" y="144" width="72" height="72"></rect>
    <rect class="cls-6" x="216" y="72" width="72" height="72"></rect>
    <rect class="cls-1" x="216" width="72" height="72"></rect>
    <rect class="cls-4" x="216" y="216" width="72" height="72"></rect>
    <rect class="cls-5" x="216" y="144" width="72" height="72"></rect>
    <polygon class="cls-2" points="216 288 144 216 216 216 216 288"></polygon>
    <polygon class="cls-2" points="144 72 216 144 144 144 144 72"></polygon>
  </g>
</svg>
