<svg viewBox="0 0 259 99" xmlns="http://www.w3.org/2000/svg" fill="none">
  <!-- Text portion (BULLHORN wordmark) - white version -->
  <g fill="white">
    <g transform="translate(0 57.787)">
      <path d="M0 1.522A.84.84 0 01.839.683h14.974c4.062 0 7.134 1.042 9.216 3.123 1.578 1.578 2.367 3.526 2.367 5.842v.101c0 1.041-.143 1.981-.428 2.82-.285.84-.655 1.57-1.108 2.19a8.15 8.15 0 01-1.586 1.637c-.161.126-.325.246-.491.362-.535.373-.481 1.181.113 1.454 1.392.64 2.567 1.444 3.525 2.414 1.292 1.31 1.939 3.156 1.939 5.54v.1c0 1.58-.311 2.972-.931 4.181a8.305 8.305 0 01-2.644 3.021c-1.142.806-2.51 1.42-4.105 1.838-1.595.42-3.383.63-5.363.63H.839a.839.839 0 01-.84-.839V1.522zM14.554 15.54c2.014 0 3.627-.392 4.835-1.177 1.208-.785 1.813-1.979 1.813-3.58v-.103c0-1.4-.53-2.495-1.586-3.28-1.058-.784-2.594-1.177-4.61-1.177H6.934a.838.838 0 00-.84.84V14.7c0 .464.376.84.84.84h7.62zm1.813 14.856c2.115 0 3.778-.4 4.986-1.202 1.209-.8 1.813-2.004 1.813-3.608v-.1c0-1.502-.597-2.663-1.788-3.482-1.192-.818-3.014-1.227-5.464-1.227H6.933a.839.839 0 00-.84.84v7.94c0 .464.376.84.84.84h9.434z"/>
    </g>
    <path d="M60.931 58.157h4.417c.518 0 .938.42.938.937v33.692c0 .517-.42.937-.938.937h-4.417a.937.937 0 01-.937-.937V59.094c0-.517.419-.937.937-.937m11.009 0h4.416c.518 0 .938.42.938.937v33.692c0 .517-.42.937-.938.937H71.94a.937.937 0 01-.937-.937V59.094c0-.517.42-.937.937-.937m10.07 0h3.034a3.153 3.153 0 013.152 3.152v9.966c.64-.711 1.573-1.404 2.8-2.08 1.225-.675 2.8-1.014 4.718-1.014 1.528 0 2.897.25 4.106.747 1.208.499 2.213 1.2 3.013 2.107.8.906 1.413 1.999 1.84 3.278.426 1.28.64 2.686.64 4.213v14.333a.863.863 0 01-.865.864h-4.564a.864.864 0 01-.864-.864v-14.28c0-1.6-.436-2.834-1.306-3.705-.87-.871-2-1.307-3.386-1.307a5.75 5.75 0 00-2.4.507 5.623 5.623 0 00-1.919 1.413 6.733 6.733 0 00-1.253 2.107 7.234 7.234 0 00-.454 2.584v12.68a.863.863 0 01-.863.865h-4.565a.864.864 0 01-.864-.864V58.156zm75.653 10.557h3.967a1.06 1.06 0 011.057 1l.103 1.827c.32-.355.702-.729 1.146-1.12a8.69 8.69 0 011.6-1.093 9.782 9.782 0 012.106-.827c.782-.213 1.671-.32 2.667-.32 3.127 0 5.51.933 7.145 2.8 1.634 1.866 2.453 4.381 2.453 7.545v14.078c0 .618-.5 1.12-1.119 1.12h-4.054a1.12 1.12 0 01-1.12-1.12V78.58c0-1.6-.435-2.835-1.306-3.706-.87-.87-1.999-1.306-3.386-1.306-.853 0-1.653.168-2.4.506a5.623 5.623 0 00-1.919 1.413 6.772 6.772 0 00-1.253 2.107 7.24 7.24 0 00-.453 2.586v12.425c0 .618-.5 1.12-1.119 1.12h-4.055a1.119 1.119 0 01-1.119-1.12v-22.83a1.06 1.06 0 011.06-1.06m29.156 2.272c0 .39-.096.753-.29 1.086a2.152 2.152 0 01-.794.794 2.132 2.132 0 01-1.082.293c-.386 0-.747-.098-1.082-.292a2.136 2.136 0 01-.797-.793 2.15 2.15 0 010-2.164c.194-.34.46-.605.795-.798.335-.193.697-.29 1.084-.29.386 0 .745.097 1.08.289.334.19.598.458.793.796.196.338.293.698.293 1.079zm-.297.004c0-.331-.083-.642-.252-.933a1.838 1.838 0 00-.683-.687 1.861 1.861 0 00-1.869 0 1.816 1.816 0 00-.688.687c-.168.29-.25.605-.25.939 0 .332.082.642.25.93.166.29.396.517.691.684a1.858 1.858 0 001.866-.001c.29-.168.518-.395.684-.684.168-.288.251-.598.251-.935zm-2.779-1.26h1.045c.245 0 .42.024.526.072a.594.594 0 01.264.239c.067.11.102.239.102.385a.732.732 0 01-.07.329.713.713 0 01-.24.22.496.496 0 01.227.194c.038.072.057.196.057.373v.28c0 .132.03.242.088.33l.041.066h-.442a1.862 1.862 0 01-.06-.365l-.02-.305a.547.547 0 00-.054-.236.254.254 0 00-.122-.1 1.048 1.048 0 00-.318-.03h-.63v1.036h-.394V69.73zm.393.36v.74h.62c.187 0 .314-.022.381-.064.1-.06.15-.164.15-.308 0-.127-.037-.22-.108-.28-.07-.057-.205-.087-.399-.087h-.644zm-45.934-1.451h3.933c.571 0 1.042.447 1.071 1.018l.108 2.128c.285-.355.65-.747 1.094-1.173a8.348 8.348 0 011.572-1.173 10.027 10.027 0 012.106-.906c.801-.249 1.715-.374 2.747-.374.604 0 1.146.036 1.626.107.205.03.412.07.62.12a.894.894 0 01.672 1.058l-.898 4.153a.892.892 0 01-1.088.673 5.634 5.634 0 00-.426-.086c-.444-.07-.968-.107-1.573-.107-.853 0-1.67.143-2.452.427a5.862 5.862 0 00-2.027 1.227 5.957 5.957 0 00-1.359 1.92c-.339.746-.507 1.581-.507 2.505v12.435c0 .583-.472 1.056-1.055 1.056h-4.182a1.056 1.056 0 01-1.055-1.056v-22.88c0-.593.481-1.072 1.073-1.072m-87.748.462a.972.972 0 00-.972.972v12.154c0 3.329-2.377 5.563-5.278 5.563h-1.157c-2.901 0-5.28-2.235-5.28-5.563V70.074a.97.97 0 00-.97-.971h-3.86a.971.971 0 00-.97.971v13.485c0 5.859 5.362 9.934 11.03 9.984v.001h.04l.067.001v-.001h1.042v.002l.08-.002h.124v-.003c5.63-.095 10.935-4.155 10.935-9.981V70.074a.972.972 0 00-.972-.972h-3.86zm57.413 12.196c0-1.813.329-3.527.987-5.146a13.117 13.117 0 012.745-4.239c1.175-1.208 2.588-2.169 4.24-2.88 1.653-.71 3.474-1.066 5.465-1.066 1.99 0 3.813.355 5.465 1.066 1.654.711 3.068 1.672 4.24 2.88a13.115 13.115 0 012.746 4.24c.657 1.618.988 3.332.988 5.145 0 1.812-.33 3.527-.988 5.146a13.428 13.428 0 01-2.745 4.265c-1.173 1.227-2.587 2.195-4.24 2.905-1.653.711-3.475 1.067-5.466 1.067-1.99 0-3.812-.356-5.466-1.067-1.651-.71-3.064-1.678-4.239-2.905a13.43 13.43 0 01-2.745-4.265 13.534 13.534 0 01-.987-5.146m13.438 7.944c1.207 0 2.257-.239 3.145-.719a6.73 6.73 0 002.214-1.893 8.305 8.305 0 001.305-2.56 9.36 9.36 0 00.428-2.772c0-.889-.142-1.805-.427-2.747a7.964 7.964 0 00-1.306-2.56 6.884 6.884 0 00-2.214-1.866c-.888-.479-1.938-.72-3.145-.72-1.21 0-2.258.241-3.147.72a6.884 6.884 0 00-2.213 1.866 7.964 7.964 0 00-1.305 2.56 9.431 9.431 0 00-.428 2.747c0 .924.142 1.848.428 2.772.283.925.72 1.778 1.305 2.56a6.73 6.73 0 002.213 1.893c.888.48 1.938.72 3.146.72"/>
  </g>
  <!-- Bull icon - orange -->
  <g transform="translate(142 .787)" fill="#EF6A25">
    <path d="M81.755 85.593c.937 1.132 2.197 1.966 3.139 3.133 1.255 1.553 3.26 6.09 3.276 6.507-.002 1.035-.834.977-1.65 1.446-.39.144-.617.551-.995-.083a.647.647 0 00-.674-.085c-.233.102-.213.457-.184.81.017.221-.118.434-.313.495-.68.212-1.391.262-2.158.034-.604-.18-1.037-.199-1.215-1.145l-.023-.08c-1.085-2.92 1.14-1.227-3.151-8.869l-.156-.39c-.36-1.34-1.12-2.548-2.336-3.285a4.057 4.057 0 01-1.666-1.96c-.77-1.883-2.105-3.059-3.833-3.75-1.131-.45-2.285-.853-3.415-1.328-2.568-1.076-5.608-3.026-7.83-6.39-.094-.146-.21-.29-.297-.46-.186-.368-1.79-2.293-1.422-2.162 3.369 1.407 11.175 2.783 15.632 3.268.664.072 1.266.485 1.508 1.107.035.09.369.658.432.754 1.36 2.137 1.44 2.47 1.997 3.231.885 1.213 2.096 2.333 2.303 3.861.323 2.385 1.772 3.82 3.03 5.341m34.543-28.859c-.071-.096-.284-.217-.267-.46.059-.812-.351-.562-.655-.36-1.048.7-2.418.95-2.75 2.696-.075.387-.441.528-.728.7-2.723 1.614-5.724-.309-6.457-4.232-.381-2.033-.884-4.02-1.695-5.875-.437-1-1.717-2.329-2.343-3.375a1.177 1.177 0 01-.17-.57c-.031-1.078-.49-3.554-3.418-5.259l-.065-.04c-3.591-2.612-11.318-5.305-15.464-6.56-1.582-.439-2.006.58-2.045 1.222-.007.123.01.244.043.363.08.29.254.88.256.898.982 3.747 2.245 8.94 1.52 8.736-.774-.215-2.693-11.056-7.222-14.175l-.086-.069c-2.955-2.733-9.092-4.017-11.161-4.45a1.137 1.137 0 01-.678-.426c-1.217-1.619-3.12-2.113-6.074-2.594a79.306 79.306 0 00-3.178-.46 1.183 1.183 0 01-.983-1.54l.004-.012c.095-.296.096-.893-.096-.97-.221-.088-.913.221-1.497.286-.39.043-.84-.208-.861-.22-.143-.084.203.21.053.07-1.706-1.618 2.548-3.11 1.61-3.175a20.029 20.029 0 00-.965-.038 21.801 21.801 0 00-3.491.208c-.265.037-.433-.213-.41-.438a.334.334 0 01.175-.27c5.596-3.04 7.698-6.515 7.698-6.515s1.703-2.765-2.25-4.594c-.754-.349-1.713-.665-2.933-.924-3.42-.725-6.491-1.849-8.86-2.88A49.858 49.858 0 0138.63.397c-.025-.012-.183-.09-.313-.128-.37-.14-.693-.03-.884.432-.314.764.739 1.156 1.29 1.583 2.349 1.821 5.013 2.984 7.444 4.561 1.533.994 1.577 1.434.172 2.4-2.04 1.402-4.346 2.277-6.667 3.15a1.101 1.101 0 01-.365.07c-1.224-.809-2.454-.97-3.587-.76-2.035.083-3.94 1.22-4.976 3.131a1.15 1.15 0 01-1.102.592 2.357 2.357 0 00-.252-.008 1.839 1.839 0 00-.45-.019c-5.007.385-6.004 2.441-6.2 3.32a.802.802 0 01-.457.576c-10.771 4.543-18.357 1.138-20.898-.358l-.056-.033c-.326-.194-.71.116-.571.468 2.393 6.09 14.739 6.565 18.186 6.574h.396c.259-.002.468.262.382.51-.884 2.541-1.942 4.205-2.608 5.121-.33.453-.586.954-.756 1.49l-.071.22a4.56 4.56 0 00.033 2.877c.079.227.084.473.02.704a1.85 1.85 0 00-.065.316s-.03.237.015.507c.645 3.943 2.795 4.791 2.795 4.791s.362.221 1.776.153c3.363-.159 9.015-.963 10.418-1.059.15-.009.299.005.444.043l.09.024c.105.027.203.063.297.112 4.86 2.52 12.103 10.372 14.697 14.913.146.275.297.546.45.815 1.219 2.32 2.502 4.055 4.584 5.594.232.172.893.663 1.962 1.273 1.342.763 2.43 1.207 3.307 1.561 2.358.95 4.306 1.444 5.73 1.805.613.154 1.014.244 1.269.298 1.098.231 2.094.368 3.343.532 4.702.616 6.882.37 7.74 1.866.06.072.227.643.28.843l.02.067c1.156 3.37 1.887 3.764 2.409 5.31.247.727.63 1.132 1.292 1.33 1.04.31 1.966.885 2.389 2.014.974 2.598 2.849 4.608 5.277 5.284 2.677.746 3.903.51 5.51-1.719.603-.834.638-1.61.148-2.478-.96-1.698-2.384-2.51-4.132-2.726-.836-.102-1.632-.525-1.746-1.383-.19-1.429-.932-2.267-1.79-3.15-.847-.87-.644-2.093.307-2.654.25-.147 3.109-2.414 4.27-2.997.414-.213 2.88-1.078 2.959-2.809-.357-4.137.316-7.087.629-7.06.179.016-.143 1.374.41 3.956.029.128.066.252.109.374v.003c.512 2.978 4.055 7.653 5.8 9.638.088.1.154.212.2.336.354.923.817 1.773 1.393 2.576.23.321.48.9.547 1.29.56 3.326 2.145 6.256 2.466 9.642.122 1.287.412 2.853.239 3.431-.04.132-.07.266-.057.402.082.912.373 2.941.72 3.117.37.186 2.104.537 2.889-.338a.48.48 0 00.106-.267c.152-1.458.744-.828 1.046-.432a.32.32 0 00.378.11c.725-.273 1.054-.568 1.495-1.09a.495.495 0 00.108-.23c.236-1.248.292-2.476-.29-3.634-.52-1.036-1.148-1.963-1.83-2.853-1.632-2.136-2.54-4.55-1.896-7.577.28-1.316.005-2.528-.725-3.537-.507-.7-.567-1.35-.383-2.295.556-2.86.74-5.767.439-8.679-.047-.448-.294-.944.1-1.296.377-.338.773-.02 1.127.153 1.759.86 3.446.606 5.083-.436.38-.242.74-.485 1.197-.485 1.885.002 2.766-1.237 2.896-2.053.05-.315.012-.979-.284-1.379"/>
  </g>
</svg>
