<svg width="221" height="36" viewBox="0 0 221 36" fill="none" xmlns="http://www.w3.org/2000/svg">
<g clip-path="url(#clip0_11167_50933)">
<path d="M216.605 23.4862V21.5371H211.494V18.8893H215.098V17.0505H211.494V14.9175H216.421V12.9684H209.361V23.4862H216.605ZM199.027 23.0449C199.725 23.4494 200.534 23.6701 201.417 23.6701C202.484 23.6701 203.366 23.3759 204.065 22.7875C204.764 22.1991 205.095 21.4635 205.095 20.5074C205.095 19.8086 204.874 19.2202 204.469 18.7422C204.065 18.2641 203.403 17.8228 202.484 17.4182L201.27 16.9034C200.792 16.6827 200.498 16.4988 200.314 16.3517C200.13 16.1679 200.056 15.984 200.056 15.6898C200.056 15.3588 200.167 15.1381 200.424 14.9543C200.682 14.7704 200.976 14.6968 201.343 14.6968C202.153 14.6968 202.814 15.1014 203.366 15.9104L204.837 14.7704C204.506 14.1452 204.028 13.6671 203.44 13.2993C202.851 12.9316 202.153 12.7477 201.38 12.7477C200.387 12.7477 199.541 13.0419 198.88 13.5568C198.218 14.1084 197.887 14.8072 197.887 15.7265C197.887 16.9769 198.732 18.0066 200.424 18.7422L201.564 19.257C202.079 19.5144 202.447 19.6983 202.631 19.8822C202.814 20.0661 202.888 20.2867 202.888 20.5809C202.888 20.9487 202.741 21.2429 202.484 21.4268C202.226 21.6474 201.858 21.721 201.38 21.721C200.387 21.721 199.541 21.2061 198.806 20.1764L197.335 21.2797C197.776 22.0887 198.328 22.6404 199.027 23.0449ZM193.29 23.4862V12.9684H191.157V23.4862H193.29ZM182.404 19.1467L179.646 12.7845H178.91L176.152 19.1835L173.799 12.9684H171.408L175.601 23.6701H176.299L179.241 17.0872L182.183 23.6701H182.882L187.075 12.9684H184.684L182.404 19.1467ZM165.119 23.4862V14.9175H168.503V12.9684H159.603V14.9175H162.95V23.4862H165.119ZM147.761 22.0887C148.865 23.1552 150.189 23.6701 151.733 23.6701C152.726 23.6701 153.645 23.4494 154.455 22.9713C155.264 22.4933 155.926 21.8681 156.367 21.059L154.749 19.919C154.013 21.0958 152.984 21.6842 151.733 21.6842C150.74 21.6842 149.931 21.3532 149.306 20.728C148.644 20.0661 148.35 19.257 148.35 18.2641C148.35 17.2711 148.681 16.4253 149.306 15.7633C149.968 15.1014 150.74 14.7704 151.733 14.7704C152.984 14.7704 153.976 15.3588 154.749 16.5356L156.367 15.3956C155.889 14.5865 155.264 13.9245 154.455 13.4832C153.645 13.0051 152.726 12.7845 151.733 12.7845C150.189 12.7477 148.865 13.2626 147.761 14.3658C146.658 15.4323 146.106 16.7195 146.106 18.2273C146.106 19.7351 146.658 21.0222 147.761 22.0887ZM142.723 23.4862V21.5371H137.611V18.8893H141.215V17.0505H137.611V14.9175H142.539V12.9684H135.478V23.4862H142.723ZM128.528 19.257L122.423 12.7845H121.724V23.4862H123.857V17.1976L129.925 23.7069H130.661V12.9684H128.528V19.257ZM114.81 19.257L108.706 12.7845H108.007V23.4862H110.14V17.1976L116.208 23.7069H116.943V12.9684H114.81V19.257ZM100.615 20.728C99.953 21.39 99.1808 21.6842 98.2246 21.6842C97.2317 21.6842 96.4594 21.3532 95.7974 20.728C95.1722 20.0661 94.8412 19.257 94.8412 18.2273C94.8412 17.2343 95.1722 16.3885 95.7974 15.7265C96.4226 15.0646 97.2317 14.7704 98.2246 14.7704C99.1808 14.7704 99.9898 15.1014 100.615 15.7633C101.277 16.4253 101.571 17.2343 101.571 18.2273C101.571 19.2202 101.277 20.0661 100.615 20.728ZM94.2528 22.0887C95.3561 23.1552 96.68 23.7069 98.1878 23.6701C99.6956 23.7069 101.02 23.192 102.16 22.0887C103.263 21.0222 103.814 19.7351 103.814 18.2273C103.851 16.7195 103.3 15.4323 102.16 14.3658C101.056 13.2993 99.7324 12.7477 98.1878 12.7845C96.68 12.7477 95.3561 13.2626 94.2528 14.3658C93.1495 15.4323 92.5979 16.7563 92.6347 18.2273C92.5979 19.7351 93.1495 21.0222 94.2528 22.0887ZM80.462 22.0887C81.5652 23.1552 82.8891 23.6701 84.4337 23.6701C85.4267 23.6701 86.3461 23.4494 87.1551 22.9713C87.9642 22.4933 88.6262 21.8681 89.0675 21.059L87.4493 19.919C86.7138 21.0958 85.6841 21.6842 84.4337 21.6842C83.4408 21.6842 82.6317 21.3532 82.0065 20.728C81.3446 20.0661 81.0504 19.257 81.0504 18.2641C81.0504 17.2711 81.3813 16.4253 82.0065 15.7633C82.6685 15.1014 83.4408 14.7704 84.4337 14.7704C85.6841 14.7704 86.677 15.3588 87.4493 16.5356L89.0675 15.3956C88.5894 14.5865 87.9642 13.9245 87.1551 13.4832C86.3461 13.0051 85.4267 12.7845 84.4337 12.7845C82.8891 12.7477 81.5652 13.2626 80.462 14.3658C79.3587 15.4323 78.8071 16.7195 78.8071 18.2273C78.8438 19.7351 79.3587 21.0222 80.462 22.0887ZM48.1362 11.056C43.907 8.70239 39.1997 7.45202 34.3453 7.45202C29.4909 7.45202 24.7836 8.70239 20.5544 11.056C22.2461 12.7477 23.8275 14.6233 25.2985 16.6827C27.836 20.2132 29.5277 23.5965 30.5206 25.9134L34.3453 19.6615L38.17 25.9134C39.1997 23.5965 40.8546 20.2132 43.3921 16.6827C44.8631 14.6233 46.4813 12.7477 48.1362 11.056ZM67.3698 4.28932C62.3316 5.28226 57.7714 7.37848 53.7261 10.6147C52.8067 11.3502 51.9241 12.0858 51.0782 12.9316C49.3498 14.5865 47.7316 16.4621 46.2606 18.5583C41.9946 24.4792 40.2662 29.9955 40.2294 30.069C40.0455 30.6942 39.4939 31.1355 38.8319 31.2459C38.7584 31.2459 38.648 31.2459 38.5745 31.2459C38.0229 31.2459 37.4712 30.9517 37.177 30.5104L34.3453 26.3179L31.5136 30.5104C31.1826 30.9884 30.6677 31.2459 30.1161 31.2459C30.0425 31.2459 29.9322 31.2459 29.8587 31.2459C29.1967 31.1355 28.6818 30.6942 28.4612 30.069C28.4612 30.0323 26.696 24.4792 22.43 18.5583C20.9222 16.4621 19.2673 14.5497 17.5756 12.8948C17.3917 12.7109 17.1711 12.5271 16.9872 12.3432C16.3252 11.7548 15.6633 11.1664 15.0013 10.6515C10.956 7.41525 6.39581 5.31904 1.35754 4.3261C0.438153 4.14222 -0.150257 3.2596 0.0336208 2.30343C0.217499 1.38404 1.10011 0.795629 2.01951 0.942731C7.86683 2.08278 13.2361 4.69386 17.9434 8.62885C22.9081 5.61325 28.5715 3.99512 34.3821 3.99512C40.1926 3.99512 45.8561 5.61325 50.8208 8.62885C55.5281 4.69386 60.8973 2.08278 66.7446 0.942731C67.664 0.758853 68.5466 1.34727 68.7305 2.30343C68.9144 3.2596 68.2892 4.10544 67.3698 4.28932ZM12.8315 12.4167C6.94744 17.7492 3.086 25.1043 1.94595 33.1214C1.79885 34.0408 2.46081 34.9234 3.41698 35.0705C4.37315 35.2176 5.21899 34.5557 5.36609 33.5995C6.39581 26.3915 9.88949 19.7719 15.1852 14.9543C15.5162 14.66 15.8471 14.4026 16.1414 14.1084C15.2955 13.2994 14.4129 12.5271 13.4935 11.8283C13.2361 12.049 13.0522 12.2329 12.8315 12.4167ZM66.7814 33.1214C66.9285 34.0408 66.2666 34.9234 65.3104 35.0705C65.2368 35.0705 65.1265 35.0705 65.053 35.0705C64.2071 35.0705 63.4716 34.4453 63.3613 33.5995C62.3316 26.3915 58.8379 19.7719 53.5422 14.9543C53.2112 14.66 52.8802 14.4026 52.586 14.1084C53.4319 13.2994 54.3145 12.5271 55.2339 11.8283C55.4545 12.0122 55.6752 12.1961 55.8958 12.38C61.7799 17.7492 65.6414 25.1043 66.7814 33.1214ZM218.15 11.9387H217.635V11.718H218.922V11.9387H218.407V13.2626H218.15V11.9387ZM220.614 11.718V13.2993H220.356V12.3432L219.915 12.9316H219.842L219.4 12.3432V13.2993H219.143V11.718H219.216L219.878 12.5638L220.54 11.718H220.614Z" fill="white"/>
</g>
<defs>
<clipPath id="clip0_11167_50933">
<rect width="220.614" height="34.1818" fill="white" transform="translate(0 0.90918)"/>
</clipPath>
</defs>
</svg>
